<svg version="1.1" xmlns="http://www.w3.org/2000/svg" xmlns:xlink="http://www.w3.org/1999/xlink" width="84.35294" height="84.35294" viewBox="0,0,84.35294,84.35294"><defs><linearGradient x1="240" y1="138.82353" x2="240" y2="221.17647" gradientUnits="userSpaceOnUse" id="color-1"><stop offset="0" stop-color="#ff66c2"/><stop offset="1" stop-color="#ff6666"/></linearGradient></defs><g transform="translate(-197.82353,-137.82353)"><g stroke-miterlimit="10"><path d="M198.82353,180c0,-22.74113 18.43534,-41.17647 41.17647,-41.17647c22.74113,0 41.17647,18.43534 41.17647,41.17647c0,22.74113 -18.43534,41.17647 -41.17647,41.17647c-22.74113,0 -41.17647,-18.43534 -41.17647,-41.17647z" fill="url(#color-1)" stroke="#000000" stroke-width="2"/><path d="M234.24706,212.94908l-12.16169,-61.19451l23.66756,-4.70365l12.16169,61.19451z" fill="#c3c3c3" stroke="#000000" stroke-width="2"/><path d="M225.56277,163.64773c0.41956,-1.05046 1.17531,-1.85226 2.14847,-2.47548c1.34097,-0.85877 3.09473,-1.37845 4.9505,-1.74241c-0.38137,-1.08294 -0.73664,-2.16786 -1.01073,-3.26424c-0.05753,-0.21047 -0.08824,-0.43201 -0.08824,-0.66073c0,-1.38071 1.11929,-2.5 2.5,-2.5c0.07089,0 0.1411,0.00295 0.2105,0.00874c0.55558,0.00637 1.11921,0.2295 1.60852,0.74804c0.71615,0.75893 1.49824,2.65553 2.20231,4.87894c1.10609,-0.14739 2.13298,-0.30377 3.00349,-0.51464c1.77698,-0.43047 5.04661,-1.62658 5.04661,1.95035c0,1.54708 -3.30159,2.70659 -6.71341,3.53257c0.53016,2.32449 0.87185,4.38601 0.87185,5.32147c0,2.46813 -3.34507,3.14517 -4.70308,1.39596c-0.73586,-0.94784 -0.38918,-2.53329 -0.59821,-3.57893c-0.14224,-0.7115 -0.32339,-1.41527 -0.52937,-2.11375c-1.01602,0.18834 -1.80715,0.33228 -2.19658,0.43483c-0.94635,0.2492 -4.11904,1.69424 -4.83043,0.99979z" fill="#000000" stroke="none" stroke-width="0.5"/></g></g></svg>